<svg width="106" height="23" viewBox="0 0 106 23" fill="none" xmlns="http://www.w3.org/2000/svg">
<path d="M6.44288 18.2467C5.18231 18.2467 3.96066 18.0678 2.77791 17.71C1.61072 17.3522 0.68475 16.8778 0 16.2867L1.05047 13.93C1.71966 14.4589 2.53669 14.8944 3.50156 15.2367C4.482 15.5633 5.46244 15.7267 6.44288 15.7267C7.65675 15.7267 8.55938 15.5322 9.15075 15.1433C9.75769 14.7544 10.0612 14.2411 10.0612 13.6033C10.0612 13.1367 9.88997 12.7556 9.5476 12.46C9.22078 12.1489 8.8006 11.9078 8.28703 11.7367C7.77347 11.5656 7.07316 11.3711 6.1861 11.1533C4.94109 10.8578 3.92953 10.5622 3.15141 10.2667C2.38884 9.97111 1.72744 9.51222 1.16719 8.89C0.6225 8.25222 0.350156 7.39667 0.350156 6.32333C0.350156 5.42111 0.591375 4.60444 1.07381 3.87333C1.57181 3.12667 2.31103 2.53556 3.29147 2.1C4.28747 1.66444 5.50134 1.44667 6.93309 1.44667C7.9291 1.44667 8.90953 1.57111 9.87441 1.82C10.8393 2.06889 11.6719 2.42667 12.3722 2.89333L11.4151 5.25C10.6992 4.83 9.95222 4.51111 9.1741 4.29333C8.39597 4.07556 7.64119 3.96667 6.90975 3.96667C5.71144 3.96667 4.81659 4.16889 4.22522 4.57333C3.64941 4.97778 3.3615 5.51444 3.3615 6.18333C3.3615 6.65 3.52491 7.03111 3.85172 7.32667C4.19409 7.62222 4.62206 7.85556 5.13563 8.02667C5.64919 8.19778 6.3495 8.39222 7.23656 8.61C8.45044 8.89 9.44644 9.18556 10.2246 9.49667C11.0027 9.79222 11.6641 10.2511 12.2088 10.8733C12.769 11.4956 13.0492 12.3356 13.0492 13.3933C13.0492 14.2956 12.8002 15.1122 12.3022 15.8433C11.8197 16.5744 11.0805 17.1578 10.0845 17.5933C9.0885 18.0289 7.87463 18.2467 6.44288 18.2467Z" fill="#101828"/>
<path d="M15.7782 5.55333H18.6962V18.0133H15.7782V5.55333ZM17.2488 3.5C16.7197 3.5 16.2762 3.33667 15.9183 3.01C15.5603 2.66778 15.3813 2.24778 15.3813 1.75C15.3813 1.25222 15.5603 0.839999 15.9183 0.513332C16.2762 0.171111 16.7197 0 17.2488 0C17.778 0 18.2215 0.163333 18.5794 0.489999C18.9374 0.801111 19.1163 1.19778 19.1163 1.68C19.1163 2.19333 18.9374 2.62889 18.5794 2.98667C18.2371 3.32889 17.7935 3.5 17.2488 3.5Z" fill="#101828"/>
<path d="M26.3777 18.1767C25.3661 18.1767 24.3779 18.0444 23.4131 17.78C22.4482 17.5156 21.6778 17.1811 21.102 16.7767L22.2225 14.56C22.7828 14.9333 23.452 15.2367 24.2301 15.47C25.0238 15.6878 25.8019 15.7967 26.5645 15.7967C28.3075 15.7967 29.179 15.3378 29.179 14.42C29.179 13.9844 28.9533 13.6811 28.502 13.51C28.0662 13.3389 27.3582 13.1756 26.3777 13.02C25.3506 12.8644 24.5102 12.6856 23.8566 12.4833C23.2185 12.2811 22.6583 11.9311 22.1758 11.4333C21.709 10.92 21.4755 10.2122 21.4755 9.31C21.4755 8.12778 21.9657 7.18667 22.9462 6.48667C23.9422 5.77111 25.2806 5.41333 26.9613 5.41333C27.8172 5.41333 28.6732 5.51444 29.5291 5.71667C30.3851 5.90333 31.0854 6.16 31.6301 6.48667L30.5096 8.70333C29.4513 8.08111 28.2608 7.77 26.938 7.77C26.082 7.77 25.4284 7.90222 24.9771 8.16667C24.5413 8.41556 24.3235 8.75 24.3235 9.17C24.3235 9.63667 24.5569 9.97111 25.0238 10.1733C25.5062 10.36 26.2454 10.5389 27.2414 10.71C28.2374 10.8656 29.0545 11.0444 29.6925 11.2467C30.3306 11.4489 30.8753 11.7911 31.3266 12.2733C31.7935 12.7556 32.0269 13.44 32.0269 14.3267C32.0269 15.4933 31.5211 16.4267 30.5096 17.1267C29.498 17.8267 28.1207 18.1767 26.3777 18.1767Z" fill="#101828"/>
<path d="M45.9837 5.55333L40.1478 19.0167C39.6031 20.37 38.9417 21.3189 38.1636 21.8633C37.3854 22.4233 36.4439 22.7033 35.339 22.7033C34.7165 22.7033 34.1018 22.6022 33.4948 22.4C32.8879 22.1978 32.3899 21.9178 32.0008 21.56L33.168 19.4133C33.4481 19.6778 33.7749 19.8878 34.1484 20.0433C34.5375 20.1989 34.9266 20.2767 35.3156 20.2767C35.8292 20.2767 36.2494 20.1444 36.5762 19.88C36.9186 19.6156 37.2298 19.1722 37.5099 18.55L37.72 18.06L32.2809 5.55333H35.3156L39.2374 14.77L43.1825 5.55333H45.9837Z" fill="#101828"/>
<path d="M54.7172 5.41333C55.9311 5.41333 57.0127 5.67778 57.962 6.20667C58.9269 6.73556 59.6816 7.48222 60.2263 8.44667C60.771 9.41111 61.0434 10.5233 61.0434 11.7833C61.0434 13.0433 60.771 14.1633 60.2263 15.1433C59.6816 16.1078 58.9269 16.8544 57.962 17.3833C57.0127 17.9122 55.9311 18.1767 54.7172 18.1767C53.0365 18.1767 51.7059 17.6167 50.7254 16.4967V22.54H47.8075V5.55333H50.5854V7.18667C51.0678 6.59556 51.6592 6.15222 52.3595 5.85667C53.0754 5.56111 53.8613 5.41333 54.7172 5.41333ZM54.3904 15.68C55.4642 15.68 56.3435 15.3222 57.0282 14.6067C57.7286 13.8911 58.0787 12.95 58.0787 11.7833C58.0787 10.6167 57.7286 9.67556 57.0282 8.96C56.3435 8.24444 55.4642 7.88667 54.3904 7.88667C53.6901 7.88667 53.0598 8.05 52.4996 8.37667C51.9393 8.68778 51.4958 9.13889 51.169 9.73C50.8421 10.3211 50.6787 11.0056 50.6787 11.7833C50.6787 12.5611 50.8421 13.2456 51.169 13.8367C51.4958 14.4278 51.9393 14.8867 52.4996 15.2133C53.0598 15.5244 53.6901 15.68 54.3904 15.68Z" fill="#101828"/>
<path d="M70.8839 5.41333C72.4557 5.41333 73.7162 5.87222 74.6655 6.79C75.6149 7.70778 76.0895 9.06889 76.0895 10.8733V18.0133H73.1715V11.2467C73.1715 10.1578 72.9148 9.34111 72.4012 8.79667C71.8876 8.23667 71.1562 7.95667 70.2069 7.95667C69.1331 7.95667 68.2849 8.28333 67.6624 8.93667C67.0399 9.57444 66.7287 10.5 66.7287 11.7133V18.0133H63.8107V0.699999H66.7287V7C67.2111 6.48667 67.8025 6.09778 68.5028 5.83333C69.2187 5.55333 70.0124 5.41333 70.8839 5.41333Z" fill="#101828"/>
<path d="M91.8599 5.55333V18.0133H89.082V16.4267C88.6151 16.9867 88.0315 17.4222 87.3312 17.7333C86.6309 18.0289 85.8761 18.1767 85.0668 18.1767C83.4016 18.1767 82.0866 17.7178 81.1217 16.8C80.1724 15.8667 79.6978 14.49 79.6978 12.67V5.55333H82.6157V12.2733C82.6157 13.3933 82.8647 14.2333 83.3627 14.7933C83.8763 15.3378 84.5999 15.61 85.5337 15.61C86.5764 15.61 87.4012 15.2911 88.0081 14.6533C88.6306 14 88.9419 13.0667 88.9419 11.8533V5.55333H91.8599Z" fill="#101828"/>
<path d="M99.5321 18.1767C98.5205 18.1767 97.5323 18.0444 96.5675 17.78C95.6026 17.5156 94.8322 17.1811 94.2564 16.7767L95.3769 14.56C95.9372 14.9333 96.6064 15.2367 97.3845 15.47C98.1782 15.6878 98.9563 15.7967 99.7189 15.7967C101.462 15.7967 102.333 15.3378 102.333 14.42C102.333 13.9844 102.108 13.6811 101.656 13.51C101.221 13.3389 100.513 13.1756 99.5321 13.02C98.505 12.8644 97.6646 12.6856 97.011 12.4833C96.3729 12.2811 95.8127 11.9311 95.3302 11.4333C94.8634 10.92 94.6299 10.2122 94.6299 9.31C94.6299 8.12778 95.1201 7.18667 96.1006 6.48667C97.0966 5.77111 98.435 5.41333 100.116 5.41333C100.972 5.41333 101.828 5.51444 102.684 5.71667C103.539 5.90333 104.24 6.16 104.784 6.48667L103.664 8.70333C102.606 8.08111 101.415 7.77 100.092 7.77C99.2364 7.77 98.5828 7.90222 98.1315 8.16667C97.6957 8.41556 97.4779 8.75 97.4779 9.17C97.4779 9.63667 97.7113 9.97111 98.1782 10.1733C98.6606 10.36 99.3998 10.5389 100.396 10.71C101.392 10.8656 102.209 11.0444 102.847 11.2467C103.485 11.4489 104.03 11.7911 104.481 12.2733C104.948 12.7556 105.181 13.44 105.181 14.3267C105.181 15.4933 104.676 16.4267 103.664 17.1267C102.652 17.8267 101.275 18.1767 99.5321 18.1767Z" fill="#101828"/>
</svg>
